# xmcd
#
# Track frame offsets:
#	150
#	16222
#	26247
#	38556
#	52753
#	62575
#	72955
#	84293
#	93667
#	108527
#	119395
#	128792
#	139896
#	150492
#	170366
#	180491
#	192482
#	201505
#	210280
#	219364
#	239000
#	247161
#	257367
#	266525
#
# Disc length: 3682 seconds
#
# Revision: 1
# Processed by: cddbd v1.5.2PL0 Copyright (c) Steve Scherf et al.
# Submitted via: audiograbber 1.83.01
#
DISCID=520e6018
DTITLE=Burl Ives - Eight classic albums CD 4
DYEAR=1900
DGENRE=Country
TTITLE0=Mary Ann regrets
TTITLE1=Curry Road
TTITLE2=The moon is high
TTITLE3=How do you fall out of love
TTITLE4=Busted
TTITLE5=Poor boy from a rich man's town
TTITLE6=The same old hurt
TTITLE7=I'm the boss
TTITLE8=The blizzard
TTITLE9=She didn't let the ink dry on the paper
TTITLE10=Green turdles
TTITLE11=Holding hands for Joe
TTITLE12=Sunshine in my soul
TTITLE13=Where he leads me
TTITLE14=Will there be any stars
TTITLE15=Blessed assurance
TTITLE16=We're marching to Zion
TTITLE17=Standing on the promeses
TTITLE18=Beluah land
TTITLE19=When they ring those golden bells
TTITLE20=Leaning on the everlasting arm
TTITLE21=Let the lower lights be burning
TTITLE22=Bring them in
TTITLE23=Fairest Lord Jesus
EXTD=
EXTT0=
EXTT1=
EXTT2=
EXTT3=
EXTT4=
EXTT5=
EXTT6=
EXTT7=
EXTT8=
EXTT9=
EXTT10=
EXTT11=
EXTT12=
EXTT13=
EXTT14=
EXTT15=
EXTT16=
EXTT17=
EXTT18=
EXTT19=
EXTT20=
EXTT21=
EXTT22=
EXTT23=
PLAYORDER=
